<?xml version="1.0" encoding="iso-8859-1"?>
<!-- Generator: Adobe Illustrator 16.0.0, SVG Export Plug-In . SVG Version: 6.00 Build 0)  -->
<!DOCTYPE svg PUBLIC "-//W3C//DTD SVG 1.1//EN" "http://www.w3.org/Graphics/SVG/1.1/DTD/svg11.dtd">
<svg version="1.1" id="Capa_1" xmlns="http://www.w3.org/2000/svg" xmlns:xlink="http://www.w3.org/1999/xlink" x="0px" y="0px"
	 width="84px" height="84px" viewBox="0 0 84 84" style="enable-background:new 0 0 84 84;" xml:space="preserve">
<g>
	<path fill="#ffcc5d" d="M68.5,0h-53c-1.104,0-2,0.896-2,2v80c0,1.104,0.896,2,2,2h53c1.104,0,2-0.896,2-2V2C70.5,0.896,69.604,0,68.5,0z M66.5,80
		h-49V4h49V80z M27.913,40.139c0-3.813,2.792-6.965,6.44-7.547c-0.001-0.036-0.006-0.07-0.006-0.105
		c0-4.227,3.426-7.652,7.652-7.652c4.226,0,7.651,3.426,7.651,7.652c0,0.035-0.004,0.069-0.006,0.105
		c3.649,0.582,6.44,3.734,6.44,7.547c0,4.226-3.426,7.652-7.651,7.652c-1.729,0-3.32-0.58-4.602-1.55
		c-0.262,2.707-0.377,6.02,0.484,6.883c1.521,1.522,6.668,0,6.668,0v2.21H33.015v-2.21c0,0,5.246,1.623,6.667,0
		c0.969-1.106,0.85-4.33,0.56-6.946c-1.294,1.006-2.91,1.613-4.676,1.613C31.339,47.791,27.913,44.364,27.913,40.139z"/>
</g>
<g>
</g>
<g>
</g>
<g>
</g>
<g>
</g>
<g>
</g>
<g>
</g>
<g>
</g>
<g>
</g>
<g>
</g>
<g>
</g>
<g>
</g>
<g>
</g>
<g>
</g>
<g>
</g>
<g>
</g>
</svg>
